<?xml version="1.0" standalone="yes"?>
<!DOCTYPE svg PUBLIC "-//W3C//DTD SVG 1.1//EN"
 "http://www.w3.org/Graphics/SVG/1.1/DTD/svg11.dtd">
<svg xmlns="http://www.w3.org/2000/svg" version="1.1"
  width="100%" height="100%" viewBox="0 0 1024 768"
  style="fill: none; font-family: Helvetica;
 font: Helvetica;
">

<!-- Creator: NGspice -->

<rect x="0" y="0" width="1024" height="768" fill="black" stroke="none"/>
<text stroke="none" fill="white" font-size="16" x="358" y="752">
time
</text>
<path stroke="white" d="M50 720l0 -672"/>
<text stroke="none" fill="white" font-size="16" x="35" y="728">
0.0
</text>
<path stroke="white" stroke-dasharray="1,2" d="M142 720l0 -672"/>
<text stroke="none" fill="white" font-size="16" x="122" y="728">
10.0
</text>
<path stroke="white" stroke-dasharray="1,2" d="M234 720l0 -672"/>
<text stroke="none" fill="white" font-size="16" x="214" y="728">
20.0
</text>
<path stroke="white" stroke-dasharray="1,2" d="M326 720l0 -672"/>
<text stroke="none" fill="white" font-size="16" x="306" y="728">
30.0
</text>
<path stroke="white" stroke-dasharray="1,2" d="M418 720l0 -672"/>
<text stroke="none" fill="white" font-size="16" x="398" y="728">
40.0
</text>
<path stroke="white" stroke-dasharray="1,2" d="M510 720l0 -672"/>
<text stroke="none" fill="white" font-size="16" x="490" y="728">
50.0
</text>
<path stroke="white" stroke-dasharray="1,2" d="M602 720l0 -672"/>
<text stroke="none" fill="white" font-size="16" x="582" y="728">
60.0
</text>
<path stroke="white" stroke-dasharray="1,2" d="M694 720l0 -672"/>
<text stroke="none" fill="white" font-size="16" x="674" y="728">
70.0
</text>
<path stroke="white" stroke-dasharray="1,2" d="M786 720l0 -672"/>
<text stroke="none" fill="white" font-size="16" x="766" y="728">
80.0
</text>
<path stroke="white" stroke-dasharray="1,2" d="M878 720l0 -672"/>
<text stroke="none" fill="white" font-size="16" x="858" y="728">
90.0
</text>
<path stroke="white" stroke-dasharray="1,2" d="M970 720l0 -672"/>
<text stroke="none" fill="white" font-size="16" x="945" y="728">
100.0
</text>
<text stroke="none" fill="white" font-size="16" x="614" y="752">
ns
</text>
<path stroke="white" stroke-dasharray="1,2" d="M50 720l920 0"/>
<text stroke="none" fill="white" font-size="16" x="8" y="728">
-0.5
</text>
<path stroke="white" d="M50 636l920 0"/>
<text stroke="none" fill="white" font-size="16" x="18" y="644">
0.0
</text>
<path stroke="white" stroke-dasharray="1,2" d="M50 552l920 0"/>
<text stroke="none" fill="white" font-size="16" x="18" y="560">
0.5
</text>
<path stroke="white" stroke-dasharray="1,2" d="M50 468l920 0"/>
<text stroke="none" fill="white" font-size="16" x="18" y="476">
1.0
</text>
<path stroke="white" stroke-dasharray="1,2" d="M50 384l920 0"/>
<text stroke="none" fill="white" font-size="16" x="18" y="392">
1.5
</text>
<path stroke="white" stroke-dasharray="1,2" d="M50 300l920 0"/>
<text stroke="none" fill="white" font-size="16" x="18" y="308">
2.0
</text>
<path stroke="white" stroke-dasharray="1,2" d="M50 216l920 0"/>
<text stroke="none" fill="white" font-size="16" x="18" y="224">
2.5
</text>
<path stroke="white" stroke-dasharray="1,2" d="M50 132l920 0"/>
<text stroke="none" fill="white" font-size="16" x="18" y="140">
3.0
</text>
<path stroke="white" stroke-dasharray="1,2" d="M50 48l920 0"/>
<text stroke="none" fill="white" font-size="16" x="18" y="56">
3.5
</text>
<text stroke="none" fill="white" font-size="16" x="10" y="32">
V
</text>
<path stroke="blue" stroke-width="4" d="M460 23l46 0"/>
<text stroke="none" fill="white" font-size="16" x="516" y="32">
tgon
</text>
<path stroke="red" stroke-width="4" d="M50 334l46 0M96 636l0 -302M96 636l92 0 0 -302 92 0M280 636l0 -302M280 636l92 0 0 -302 92 0M464 636l0 -302M464 636l92 0 0 -302 92 0M648 636l0 -302M648 636l92 0 0 -302 92 0M832 636l0 -302M832 636l92 0 0 -302 46 0"/>
<path stroke="red" stroke-width="4" d="M50 23l46 0"/>
<text stroke="none" fill="white" font-size="16" x="106" y="32">
ctrl
</text>
<path stroke="blue" stroke-width="4" d="M50 82l48 0 0 -1 1 0 0 -1 1 0M100 82l0 -2M100 82l1 1M101 89l0 -6M101 89l1 1M102 99l0 -9M102 99l1 1M103 110l0 -10M103 110l1 1M104 123l0 -12M104 123l1 1M105 136l0 -12M105 136l1 1M106 148l0 -11M106 148l1 2M107 162l0 -12M107 162l1 2"/>
<path stroke="blue" stroke-width="4" d="M108 177l0 -13M108 177l1 1M109 191l0 -13M109 191l1 1M110 206l0 -14M110 206l1 1M111 221l0 -14M111 221l1 1M112 236l0 -14M112 236l1 1M113 251l0 -14M113 251l1 1M114 265l0 -13M114 265l1 1M115 281l0 -15M115 281l1 1M116 299l0 -17"/>
<path stroke="blue" stroke-width="4" d="M116 299l1 1M117 319l0 -19M117 319l1 2M118 344l0 -23M118 344l1 2M119 372l0 -26M119 372l1 3M120 402l0 -27M120 402l1 3M121 429l0 -24M121 429l1 2M122 458l0 -27M122 458l1 2M123 486l0 -26M123 486l1 2M124 513l0 -25M124 513l1 2"/>
<path stroke="blue" stroke-width="4" d="M125 537l0 -22M125 537l1 2M126 558l0 -19M126 558l1 2M127 576l0 -16M127 576l1 2M128 591l0 -13M128 591l1 1M129 601l0 -9M129 601l1 1M130 610l0 -8M130 610l1 0M131 616l0 -6M131 616l1 0M132 621l0 -5M132 621l1 0M133 624l0 -3M133 624l1 0"/>
<path stroke="blue" stroke-width="4" d="M134 627l0 -3M134 627l1 0M135 629l0 -2M135 629l1 0M136 630l0 -1M136 630l1 0M137 631l0 -1M137 631l1 0M138 632l0 -1M138 632l1 0M139 633l0 -1M139 633l2 0M141 634l0 -1M141 634l2 0 1 1 10 0M154 636l0 -1M154 636l35 0 0 -6 1 -1"/>
<path stroke="blue" stroke-width="4" d="M190 629l0 -17 1 -3 0 -29 1 -3 0 -36 1 -4 0 -41 1 -4 0 -42 1 -4 0 -43 1 -4 0 -42 1 -4 0 -37 1 -3 0 -24 1 -2 0 -19 1 -1 0 -15 1 -1 0 -14 1 -1 0 -12 1 -2 0 -11 1 -1 0 -11 1 -1 0 -10 1 -1 0 -8 1 -1 0 -8 1 -1 0 -8 1 0 0 -7"/>
<path stroke="blue" stroke-width="4" d="M209 154l1 -1 0 -6 1 -1 0 -6 1 0 0 -6 1 0 0 -5 1 0 0 -4 1 -1 0 -4 1 0 0 -4 1 0 0 -3 1 -1 0 -3 1 0 0 -2 1 -1 0 -2 1 0 0 -2 1 0 0 -2 1 0 0 -2 1 0 0 -2 1 0 0 -1 1 -1 0 -1 1 0 0 -1 1 0 0 -1 1 0 0 -1 1 0 0 -1 1 0 0 -1 1 0 1 -1"/>
<path stroke="blue" stroke-width="4" d="M233 87l1 0 0 -1 2 0 0 -1 3 0 0 -1 3 0 1 -1 6 0 0 -1 33 0 0 -1 1 0 0 -1M283 81l1 0M284 85l0 -4M284 85l1 0M285 93l0 -8M285 93l1 1M286 104l0 -10M286 104l1 1M287 116l0 -11M287 116l1 1M288 129l0 -12M288 129l1 1M289 142l0 -12"/>
<path stroke="blue" stroke-width="4" d="M289 142l1 1M290 155l0 -12M290 155l1 1M291 169l0 -13M291 169l1 1M292 183l0 -13M292 183l1 2M293 198l0 -13M293 198l1 1M294 213l0 -14M294 213l1 1M295 228l0 -14M295 228l1 1M296 243l0 -14M296 243l1 1M297 258l0 -14M297 258l1 1"/>
<path stroke="blue" stroke-width="4" d="M298 272l0 -13M298 272l1 2M299 289l0 -15M299 289l1 1M300 308l0 -18M300 308l1 1M301 330l0 -21M301 330l1 2M302 357l0 -25M302 357l1 2M303 386l0 -27M303 386l1 3M304 416l0 -27M304 416l1 2M305 442l0 -24M305 442l1 3M306 471l0 -26"/>
<path stroke="blue" stroke-width="4" d="M306 471l1 2M307 498l0 -25M307 498l1 3M308 524l0 -23M308 524l1 2M309 547l0 -21M309 547l1 2M310 567l0 -18M310 567l1 2M311 584l0 -15M311 584l1 1M312 597l0 -12M312 597l1 1M313 605l0 -7M313 605l1 1M314 613l0 -7M314 613l1 0"/>
<path stroke="blue" stroke-width="4" d="M315 618l0 -5M315 618l1 1M316 622l0 -3M316 622l1 1M317 625l0 -2M317 625l1 1M318 628l0 -2M318 628l1 0M319 629l0 -1M319 629l1 0M320 631l0 -2M320 631l1 0M321 632l0 -1M321 632l1 0 1 1 1 0M324 634l0 -1M324 634l3 0M327 635l0 -1"/>
<path stroke="blue" stroke-width="4" d="M327 635l11 0M338 636l0 -1M338 636l35 0 0 -6 1 -1 0 -17 1 -3 0 -29 1 -3 0 -36 1 -4 0 -41 1 -4 0 -42 1 -4 0 -43 1 -4 0 -42 1 -4 0 -37 1 -3 0 -24 1 -2 0 -19 1 -1 0 -15 1 -1 0 -14 1 -1 0 -12 1 -2 0 -11 1 -1 0 -11 1 -1 0 -10"/>
<path stroke="blue" stroke-width="4" d="M389 188l1 -1 0 -8 1 -1 0 -8 1 -1 0 -8 1 0 0 -7 1 -1 0 -6 1 -1 0 -6 1 0 0 -6 1 0 0 -5 1 0 0 -4 1 -1 0 -4 1 0 0 -4 1 0 0 -3 1 -1 0 -3 1 0 0 -2 1 -1 0 -2 1 0 0 -2 1 0 0 -2 1 0 0 -2 1 0 0 -2 1 0 0 -1 1 -1 0 -1 1 0 0 -1 1 0"/>
<path stroke="blue" stroke-width="4" d="M412 92l0 -1 1 0 0 -1 1 0 0 -1 1 0 0 -1 1 0 1 -1 1 0 0 -1 2 0 0 -1 3 0 0 -1 3 0 1 -1 6 0 0 -1 33 0 0 -1 1 0 0 -1M467 81l1 0M468 85l0 -4M468 85l1 0M469 93l0 -8M469 93l1 1M470 104l0 -10M470 104l1 1M471 116l0 -11M471 116l1 1"/>
<path stroke="blue" stroke-width="4" d="M472 129l0 -12M472 129l1 1M473 142l0 -12M473 142l1 1M474 155l0 -12M474 155l1 1M475 169l0 -13M475 169l1 1M476 183l0 -13M476 183l1 2M477 198l0 -13M477 198l1 1M478 213l0 -14M478 213l1 1M479 228l0 -14M479 228l1 1M480 243l0 -14"/>
<path stroke="blue" stroke-width="4" d="M480 243l1 1M481 258l0 -14M481 258l1 1M482 272l0 -13M482 272l1 2M483 289l0 -15M483 289l1 1M484 308l0 -18M484 308l1 1M485 330l0 -21M485 330l1 2M486 357l0 -25M486 357l1 2M487 386l0 -27M487 386l1 3M488 416l0 -27M488 416l1 2"/>
<path stroke="blue" stroke-width="4" d="M489 442l0 -24M489 442l1 3M490 471l0 -26M490 471l1 2M491 498l0 -25M491 498l1 3M492 524l0 -23M492 524l1 2M493 547l0 -21M493 547l1 2M494 567l0 -18M494 567l1 2M495 584l0 -15M495 584l1 1M496 597l0 -12M496 597l1 1M497 605l0 -7"/>
<path stroke="blue" stroke-width="4" d="M497 605l1 1M498 613l0 -7M498 613l1 0M499 618l0 -5M499 618l1 1M500 622l0 -3M500 622l1 1M501 625l0 -2M501 625l1 1M502 628l0 -2M502 628l1 0M503 629l0 -1M503 629l1 0M504 631l0 -2M504 631l1 0M505 632l0 -1M505 632l1 0 1 1 1 0"/>
<path stroke="blue" stroke-width="4" d="M508 634l0 -1M508 634l3 0M511 635l0 -1M511 635l11 0M522 636l0 -1M522 636l35 0 0 -6 1 -1 0 -17 1 -3 0 -29 1 -3 0 -36 1 -4 0 -41 1 -4 0 -42 1 -4 0 -43 1 -4 0 -42 1 -4 0 -37 1 -3 0 -24 1 -2 0 -19 1 -1 0 -15 1 -1 0 -14 1 -1"/>
<path stroke="blue" stroke-width="4" d="M570 236l0 -12 1 -2 0 -11 1 -1 0 -11 1 -1 0 -10 1 -1 0 -8 1 -1 0 -8 1 -1 0 -8 1 0 0 -7 1 -1 0 -6 1 -1 0 -6 1 0 0 -6 1 0 0 -5 1 0 0 -4 1 -1 0 -4 1 0 0 -4 1 0 0 -3 1 -1 0 -3 1 0 0 -2 1 -1 0 -2 1 0 0 -2 1 0 0 -2 1 0 0 -2 1 0"/>
<path stroke="blue" stroke-width="4" d="M592 98l0 -2 1 0 0 -1 1 -1 0 -1 1 0 0 -1 1 0 0 -1 1 0 0 -1 1 0 0 -1 1 0 0 -1 1 0 1 -1 1 0 0 -1 2 0 0 -1 3 0 0 -1 3 0 1 -1 6 0 0 -1 33 0 0 -1 1 0 0 -1M651 81l1 0M652 85l0 -4M652 85l1 0M653 93l0 -8M653 93l1 1M654 104l0 -10"/>
<path stroke="blue" stroke-width="4" d="M654 104l1 1M655 116l0 -11M655 116l1 1M656 129l0 -12M656 129l1 1M657 142l0 -12M657 142l1 1M658 155l0 -12M658 155l1 1M659 169l0 -13M659 169l1 1M660 183l0 -13M660 183l1 2M661 198l0 -13M661 198l1 1M662 213l0 -14M662 213l1 1"/>
<path stroke="blue" stroke-width="4" d="M663 228l0 -14M663 228l1 1M664 243l0 -14M664 243l1 1M665 258l0 -14M665 258l1 1M666 272l0 -13M666 272l1 2M667 289l0 -15M667 289l1 1M668 308l0 -18M668 308l1 1M669 330l0 -21M669 330l1 2M670 357l0 -25M670 357l1 2M671 386l0 -27"/>
<path stroke="blue" stroke-width="4" d="M671 386l1 3M672 416l0 -27M672 416l1 2M673 442l0 -24M673 442l1 3M674 471l0 -26M674 471l1 2M675 498l0 -25M675 498l1 3M676 524l0 -23M676 524l1 2M677 547l0 -21M677 547l1 2M678 567l0 -18M678 567l1 2M679 584l0 -15M679 584l1 1"/>
<path stroke="blue" stroke-width="4" d="M680 597l0 -12M680 597l1 1M681 605l0 -7M681 605l1 1M682 613l0 -7M682 613l1 0M683 618l0 -5M683 618l1 1M684 622l0 -3M684 622l1 1M685 625l0 -2M685 625l1 1M686 628l0 -2M686 628l1 0M687 629l0 -1M687 629l1 0M688 631l0 -2M688 631l1 0"/>
<path stroke="blue" stroke-width="4" d="M689 632l0 -1M689 632l1 0 1 1 1 0M692 634l0 -1M692 634l3 0M695 635l0 -1M695 635l11 0M706 636l0 -1M706 636l35 0 0 -6 1 -1 0 -17 1 -3 0 -29 1 -3 0 -36 1 -4 0 -41 1 -4 0 -42 1 -4 0 -43 1 -4 0 -42 1 -4 0 -37 1 -3 0 -24 1 -2"/>
<path stroke="blue" stroke-width="4" d="M751 287l0 -19 1 -1 0 -15 1 -1 0 -14 1 -1 0 -12 1 -2 0 -11 1 -1 0 -11 1 -1 0 -10 1 -1 0 -8 1 -1 0 -8 1 -1 0 -8 1 0 0 -7 1 -1 0 -6 1 -1 0 -6 1 0 0 -6 1 0 0 -5 1 0 0 -4 1 -1 0 -4 1 0 0 -4 1 0 0 -3 1 -1 0 -3 1 0 0 -2 1 -1"/>
<path stroke="blue" stroke-width="4" d="M772 106l0 -2 1 0 0 -2 1 0 0 -2 1 0 0 -2 1 0 0 -2 1 0 0 -1 1 -1 0 -1 1 0 0 -1 1 0 0 -1 1 0 0 -1 1 0 0 -1 1 0 0 -1 1 0 1 -1 1 0 0 -1 2 0 0 -1 3 0 0 -1 3 0 1 -1 6 0 0 -1 33 0 0 -1 1 0 0 -1M835 81l1 0M836 85l0 -4M836 85l1 0"/>
<path stroke="blue" stroke-width="4" d="M837 93l0 -8M837 93l1 1M838 104l0 -10M838 104l1 1M839 116l0 -11M839 116l1 1M840 129l0 -12M840 129l1 1M841 142l0 -12M841 142l1 1M842 155l0 -12M842 155l1 1M843 169l0 -13M843 169l1 1M844 183l0 -13M844 183l1 2M845 198l0 -13"/>
<path stroke="blue" stroke-width="4" d="M845 198l1 1M846 213l0 -14M846 213l1 1M847 228l0 -14M847 228l1 1M848 243l0 -14M848 243l1 1M849 258l0 -14M849 258l1 1M850 272l0 -13M850 272l1 2M851 289l0 -15M851 289l1 1M852 308l0 -18M852 308l1 1M853 330l0 -21M853 330l1 2"/>
<path stroke="blue" stroke-width="4" d="M854 357l0 -25M854 357l1 2M855 386l0 -27M855 386l1 3M856 416l0 -27M856 416l1 2M857 442l0 -24M857 442l1 3M858 471l0 -26M858 471l1 2M859 498l0 -25M859 498l1 3M860 524l0 -23M860 524l1 2M861 547l0 -21M861 547l1 2M862 567l0 -18"/>
<path stroke="blue" stroke-width="4" d="M862 567l1 2M863 584l0 -15M863 584l1 1M864 597l0 -12M864 597l1 1M865 605l0 -7M865 605l1 1M866 613l0 -7M866 613l1 0M867 618l0 -5M867 618l1 1M868 622l0 -3M868 622l1 1M869 625l0 -2M869 625l1 1M870 628l0 -2M870 628l1 0M871 629l0 -1"/>
<path stroke="blue" stroke-width="4" d="M871 629l1 0M872 631l0 -2M872 631l1 0M873 632l0 -1M873 632l1 0 1 1 1 0M876 634l0 -1M876 634l3 0M879 635l0 -1M879 635l11 0M890 636l0 -1M890 636l35 0 0 -6 1 -1 0 -17 1 -3 0 -29 1 -3 0 -36 1 -4 0 -41 1 -4 0 -42 1 -4 0 -43"/>
<path stroke="blue" stroke-width="4" d="M931 403l1 -4 0 -42 1 -4 0 -37 1 -3 0 -24 1 -2 0 -19 1 -1 0 -15 1 -1 0 -14 1 -1 0 -12 1 -2 0 -11 1 -1 0 -11 1 -1 0 -10 1 -1 0 -8 1 -1 0 -8 1 -1 0 -8 1 0 0 -7 1 -1 0 -6 1 -1 0 -6 1 0 0 -6 1 0 0 -5 1 0 0 -4 1 -1 0 -4 1 0"/>
<path stroke="blue" stroke-width="4" d="M952 120l0 -4 1 0 0 -3 1 -1 0 -3 1 0 0 -2 1 -1 0 -2 1 0 0 -2 1 0 0 -2 1 0 0 -2 1 0 0 -2 1 0 0 -1 1 -1 0 -1 1 0 0 -1 1 0 0 -1 1 0 0 -1 1 0 0 -1 1 0 0 -1 1 0 1 -1 1 0"/>
<path stroke="#FFA500" stroke-width="4" d="M460 39l46 0"/>
<text stroke="none" fill="white" font-size="16" x="516" y="48">
tgon_n
</text>
<path stroke="#FFA500" stroke-width="4" d="M50 636l47 0M97 637l0 -1 1 -1 0 -6 1 -1 0 -13 1 -1 0 -16 1 -2 0 -18 1 -2 0 -18 1 -2 0 -18 1 -2 0 -18 1 -2 0 -18 1 -2 0 -16 1 -2 0 -17 1 -2 0 -18 1 -1 0 -17 1 -2 0 -17 1 -1 0 -17 1 -1 0 -16 1 -2 0 -15 1 -1 0 -14 1 -1"/>
<path stroke="#FFA500" stroke-width="4" d="M115 336l0 -14 1 -1 0 -12 1 -1 0 -10 1 -1 0 -9 1 -1 0 -7 1 0 0 -7 1 0 0 -6 1 0 0 -6 1 0 0 -6 1 0 0 -6 1 0 0 -6 1 0 0 -6 1 0 0 -6 1 -1 0 -6 1 -1 0 -6 1 0 0 -7 1 -1 0 -7 1 -1 0 -7 1 0 0 -7 1 -1 0 -6 1 -1 0 -6 1 0 0 -6"/>
<path stroke="#FFA500" stroke-width="4" d="M136 167l1 -1 0 -5 1 0 0 -5 1 -1 0 -5 1 0 0 -4 1 -1 0 -4 1 0 0 -4 1 -1 0 -3 1 -1 0 -3 1 0 0 -3 1 0 0 -3 1 0 0 -3 1 0 0 -3 1 0 0 -2 1 -1 0 -2 1 0 0 -2 1 0 0 -2 1 0 0 -2 1 0 0 -2 1 0 0 -1 1 0 0 -2 1 0 0 -1 1 0 0 -1 1 0"/>
<path stroke="#FFA500" stroke-width="4" d="M159 99l0 -2 1 0 0 -1 1 0 0 -1 1 0 0 -1 1 0 0 -1 2 0 0 -1 1 0 0 -1 1 0 1 -1 1 0 0 -1 2 0 0 -1 2 0 0 -1 3 0 0 -1 3 0 0 -1 4 0 0 -1 6 0 0 -1 1 0 0 -3 1 0 0 -4 1 0 0 -3 1 0 0 -1 1 0 0 -1 3 0M197 73l0 -2M197 73l1 0M198 76l0 -3"/>
<path stroke="#FFA500" stroke-width="4" d="M198 76l1 0M199 83l0 -7M199 83l1 1M200 92l0 -8M200 92l1 1M201 102l0 -9M201 102l1 1M202 112l0 -9M202 112l1 1M203 122l0 -9M203 122l1 1M204 133l0 -10M204 133l1 1M205 144l0 -10M205 144l1 1M206 154l0 -9M206 154l1 1M207 165l0 -10"/>
<path stroke="#FFA500" stroke-width="4" d="M207 165l1 1M208 177l0 -11M208 177l1 1M209 189l0 -11M209 189l1 1M210 201l0 -11M210 201l1 1M211 213l0 -11M211 213l1 1M212 225l0 -11M212 225l1 1M213 236l0 -10M213 236l1 1M214 248l0 -11M214 248l1 2M215 261l0 -11M215 261l1 1"/>
<path stroke="#FFA500" stroke-width="4" d="M216 273l0 -11M216 273l1 2M217 286l0 -11M217 286l1 1M218 299l0 -12M218 299l1 1M219 311l0 -11M219 311l1 2M220 324l0 -11M220 324l1 1M221 336l0 -11M221 336l1 1M222 348l0 -11M222 348l1 2M223 361l0 -11M223 361l1 1M224 374l0 -12"/>
<path stroke="#FFA500" stroke-width="4" d="M224 374l1 1M225 387l0 -12M225 387l1 1M226 399l0 -11M226 399l1 1M227 412l0 -12M227 412l1 1M228 424l0 -11M228 424l1 2M229 436l0 -10M229 436l1 1M230 448l0 -11M230 448l1 1M231 460l0 -11M231 460l1 1M232 472l0 -11M232 472l1 1"/>
<path stroke="#FFA500" stroke-width="4" d="M233 484l0 -11M233 484l1 1M234 495l0 -10M234 495l1 1M235 506l0 -10M235 506l1 1M236 516l0 -9M236 516l1 1M237 526l0 -9M237 526l1 1M238 536l0 -9M238 536l1 1M239 545l0 -8M239 545l1 1M240 554l0 -8M240 554l1 1M241 562l0 -7"/>
<path stroke="#FFA500" stroke-width="4" d="M241 562l1 1M242 570l0 -7M242 570l1 0M243 576l0 -6M243 576l1 1M244 582l0 -5M244 582l1 1M245 588l0 -5M245 588l1 0M246 593l0 -5M246 593l1 1M247 598l0 -4M247 598l1 0M248 602l0 -4M248 602l1 1M249 606l0 -3M249 606l1 0M250 609l0 -3"/>
<path stroke="#FFA500" stroke-width="4" d="M250 609l1 1M251 612l0 -2M251 612l1 1M252 615l0 -2M252 615l1 0M253 617l0 -2M253 617l1 1M254 620l0 -2M254 620l1 0M255 621l0 -1M255 621l1 1M256 623l0 -1M256 623l1 0M257 625l0 -2M257 625l1 0M258 626l0 -1M258 626l1 0M259 627l0 -1"/>
<path stroke="#FFA500" stroke-width="4" d="M259 627l1 0M260 628l0 -1M260 628l1 0M261 629l0 -1M261 629l1 0M262 630l0 -1M262 630l1 0 1 1 1 0M265 632l0 -1M265 632l2 0M267 633l0 -1M267 633l3 0M270 634l0 -1M270 634l5 0M275 635l0 -1M275 635l6 0 0 -2 1 -1 0 -8 1 -2"/>
<path stroke="#FFA500" stroke-width="4" d="M283 622l0 -14 1 -1 0 -17 1 -2 0 -18 1 -2 0 -19 1 -1 0 -19 1 -2 0 -18 1 -2 0 -18 1 -1 0 -16 1 -2 0 -18 1 -1 0 -18 1 -1 0 -17 1 -2 0 -16 1 -2 0 -16 1 -2 0 -15 1 -2 0 -15 1 -1 0 -13 1 -2 0 -13 1 -1 0 -11 1 -1 0 -9 1 -1"/>
<path stroke="#FFA500" stroke-width="4" d="M302 293l0 -8 1 -1 0 -7 1 0 0 -6 1 -1 0 -5 1 -1 0 -5 1 -1 0 -5 1 -1 0 -5 1 0 0 -6 1 0 0 -6 1 -1 0 -6 1 0 0 -7 1 -1 0 -6 1 0 0 -7 1 -1 0 -7 1 -1 0 -7 1 0 0 -7 1 -1 0 -6 1 -1 0 -6 1 0 0 -6 1 0 0 -5 1 -1 0 -5 1 0 0 -5 1 0"/>
<path stroke="#FFA500" stroke-width="4" d="M324 148l0 -4 1 -1 0 -4 1 0 0 -4 1 0 0 -4 1 0 0 -3 1 0 0 -3 1 -1 0 -3 1 0 0 -2 1 -1 0 -2 1 0 0 -3 1 0 0 -2 1 0 0 -2 1 0 0 -2 1 0 0 -2 1 0 0 -1 1 0 0 -2 1 0 0 -1 1 0 0 -2 1 0 0 -1 1 0 0 -1 1 0 0 -1 1 0 0 -1 1 0 0 -1 1 0"/>
<path stroke="#FFA500" stroke-width="4" d="M347 94l0 -1 1 0 0 -1 2 0 0 -1 1 0 0 -1 2 0 0 -1 2 0 0 -1 2 0 0 -1 2 0 0 -1 4 0 0 -1 4 0 0 -1 6 0 0 -1 1 0 0 -3 1 0 0 -4 1 -1 0 -2 1 0 0 -1 1 0 0 -1 3 0M381 73l0 -2M381 73l1 0M382 76l0 -3M382 76l1 0M383 83l0 -7M383 83l1 1"/>
<path stroke="#FFA500" stroke-width="4" d="M384 92l0 -8M384 92l1 1M385 102l0 -9M385 102l1 1M386 112l0 -9M386 112l1 1M387 122l0 -9M387 122l1 1M388 133l0 -10M388 133l1 1M389 144l0 -10M389 144l1 1M390 154l0 -9M390 154l1 1M391 165l0 -10M391 165l1 1M392 177l0 -11"/>
<path stroke="#FFA500" stroke-width="4" d="M392 177l1 1M393 189l0 -11M393 189l1 1M394 201l0 -11M394 201l1 1M395 213l0 -11M395 213l1 1M396 225l0 -11M396 225l1 1M397 236l0 -10M397 236l1 1M398 248l0 -11M398 248l1 1M399 261l0 -12M399 261l1 1M400 273l0 -11M400 273l1 2"/>
<path stroke="#FFA500" stroke-width="4" d="M401 286l0 -11M401 286l1 1M402 299l0 -12M402 299l1 1M403 311l0 -11M403 311l1 1M404 324l0 -12M404 324l1 1M405 336l0 -11M405 336l1 1M406 348l0 -11M406 348l1 2M407 361l0 -11M407 361l1 1M408 374l0 -12M408 374l1 1M409 387l0 -12"/>
<path stroke="#FFA500" stroke-width="4" d="M409 387l1 1M410 399l0 -11M410 399l1 1M411 412l0 -12M411 412l1 1M412 424l0 -11M412 424l1 2M413 436l0 -10M413 436l1 1M414 448l0 -11M414 448l1 1M415 460l0 -11M415 460l1 1M416 472l0 -11M416 472l1 1M417 484l0 -11M417 484l1 1"/>
<path stroke="#FFA500" stroke-width="4" d="M418 495l0 -10M418 495l1 1M419 506l0 -10M419 506l1 1M420 516l0 -9M420 516l1 1M421 526l0 -9M421 526l1 1M422 536l0 -9M422 536l1 1M423 545l0 -8M423 545l1 1M424 554l0 -8M424 554l1 1M425 562l0 -7M425 562l1 1M426 570l0 -7"/>
<path stroke="#FFA500" stroke-width="4" d="M426 570l1 0M427 576l0 -6M427 576l1 1M428 582l0 -5M428 582l1 1M429 588l0 -5M429 588l1 0M430 593l0 -5M430 593l1 1M431 598l0 -4M431 598l1 0M432 602l0 -4M432 602l1 1M433 606l0 -3M433 606l1 0M434 609l0 -3M434 609l1 1M435 612l0 -2"/>
<path stroke="#FFA500" stroke-width="4" d="M435 612l1 1M436 615l0 -2M436 615l1 0M437 617l0 -2M437 617l1 1M438 620l0 -2M438 620l1 0M439 621l0 -1M439 621l1 1M440 623l0 -1M440 623l1 0M441 625l0 -2M441 625l1 0M442 626l0 -1M442 626l1 0M443 627l0 -1M443 627l1 0M444 628l0 -1"/>
<path stroke="#FFA500" stroke-width="4" d="M444 628l1 0M445 629l0 -1M445 629l1 0M446 630l0 -1M446 630l1 0 1 1 1 0M449 632l0 -1M449 632l2 0M451 633l0 -1M451 633l3 0M454 634l0 -1M454 634l5 0M459 635l0 -1M459 635l6 0 0 -2 1 -1 0 -8 1 -2 0 -14 1 -1 0 -17 1 -2 0 -18"/>
<path stroke="#FFA500" stroke-width="4" d="M469 570l1 -2 0 -19 1 -1 0 -19 1 -2 0 -18 1 -2 0 -18 1 -1 0 -16 1 -2 0 -18 1 -1 0 -18 1 -1 0 -17 1 -2 0 -16 1 -2 0 -16 1 -2 0 -15 1 -2 0 -15 1 -1 0 -13 1 -2 0 -13 1 -1 0 -11 1 -1 0 -9 1 -1 0 -8 1 -1 0 -7 1 0 0 -6 1 -1"/>
<path stroke="#FFA500" stroke-width="4" d="M489 270l0 -5 1 -1 0 -5 1 -1 0 -5 1 -1 0 -5 1 0 0 -6 1 0 0 -6 1 -1 0 -6 1 0 0 -7 1 -1 0 -6 1 0 0 -7 1 -1 0 -7 1 -1 0 -7 1 0 0 -7 1 -1 0 -6 1 -1 0 -6 1 0 0 -6 1 0 0 -5 1 -1 0 -5 1 0 0 -5 1 0 0 -4 1 -1 0 -4 1 0 0 -4 1 0"/>
<path stroke="#FFA500" stroke-width="4" d="M511 135l0 -4 1 0 0 -3 1 0 0 -3 1 -1 0 -3 1 0 0 -2 1 -1 0 -2 1 0 0 -3 1 0 0 -2 1 0 0 -2 1 0 0 -2 1 0 0 -2 1 0 0 -1 1 0 0 -2 1 0 0 -1 1 0 0 -2 1 0 0 -1 1 0 0 -1 1 0 0 -1 1 0 0 -1 1 0 0 -1 1 0 0 -1 1 0 0 -1 2 0 0 -1 1 0"/>
<path stroke="#FFA500" stroke-width="4" d="M535 91l0 -1 2 0 0 -1 2 0 0 -1 2 0 0 -1 2 0 0 -1 4 0 0 -1 4 0 0 -1 6 0 0 -1 1 0 0 -3 1 0 0 -4 1 -1 0 -2 1 0 0 -1 1 0 0 -1 3 0M565 73l0 -2M565 73l1 0M566 76l0 -3M566 76l1 0M567 83l0 -7M567 83l1 1M568 92l0 -8M568 92l1 1"/>
<path stroke="#FFA500" stroke-width="4" d="M569 102l0 -9M569 102l1 1M570 112l0 -9M570 112l1 1M571 122l0 -9M571 122l1 1M572 133l0 -10M572 133l1 1M573 144l0 -10M573 144l1 1M574 154l0 -9M574 154l1 1M575 165l0 -10M575 165l1 1M576 177l0 -11M576 177l1 1M577 189l0 -11"/>
<path stroke="#FFA500" stroke-width="4" d="M577 189l1 1M578 201l0 -11M578 201l1 1M579 213l0 -11M579 213l1 1M580 225l0 -11M580 225l1 1M581 236l0 -10M581 236l1 1M582 248l0 -11M582 248l1 1M583 261l0 -12M583 261l1 1M584 273l0 -11M584 273l1 2M585 286l0 -11M585 286l1 1"/>
<path stroke="#FFA500" stroke-width="4" d="M586 299l0 -12M586 299l1 1M587 311l0 -11M587 311l1 1M588 324l0 -12M588 324l1 1M589 336l0 -11M589 336l1 1M590 348l0 -11M590 348l1 2M591 361l0 -11M591 361l1 1M592 374l0 -12M592 374l1 1M593 387l0 -12M593 387l1 1M594 399l0 -11"/>
<path stroke="#FFA500" stroke-width="4" d="M594 399l1 1M595 412l0 -12M595 412l1 1M596 424l0 -11M596 424l1 2M597 436l0 -10M597 436l1 1M598 448l0 -11M598 448l1 1M599 460l0 -11M599 460l1 1M600 472l0 -11M600 472l1 1M601 484l0 -11M601 484l1 1M602 495l0 -10M602 495l1 1"/>
<path stroke="#FFA500" stroke-width="4" d="M603 506l0 -10M603 506l1 1M604 516l0 -9M604 516l1 1M605 526l0 -9M605 526l1 1M606 536l0 -9M606 536l1 1M607 545l0 -8M607 545l1 1M608 554l0 -8M608 554l1 1M609 562l0 -7M609 562l1 1M610 570l0 -7M610 570l1 0M611 576l0 -6M611 576l1 1"/>
<path stroke="#FFA500" stroke-width="4" d="M612 582l0 -5M612 582l1 1M613 588l0 -5M613 588l1 0M614 593l0 -5M614 593l1 1M615 598l0 -4M615 598l1 0M616 602l0 -4M616 602l1 1M617 606l0 -3M617 606l1 0M618 609l0 -3M618 609l1 1M619 612l0 -2M619 612l1 1M620 615l0 -2M620 615l1 0"/>
<path stroke="#FFA500" stroke-width="4" d="M621 617l0 -2M621 617l1 1M622 620l0 -2M622 620l1 0M623 621l0 -1M623 621l1 1M624 623l0 -1M624 623l1 0M625 625l0 -2M625 625l1 0M626 626l0 -1M626 626l1 0M627 627l0 -1M627 627l1 0M628 628l0 -1M628 628l1 0M629 629l0 -1M629 629l1 0"/>
<path stroke="#FFA500" stroke-width="4" d="M630 630l0 -1M630 630l1 0 1 1 1 0M633 632l0 -1M633 632l2 0M635 633l0 -1M635 633l3 0M638 634l0 -1M638 634l5 0M643 635l0 -1M643 635l6 0 0 -2 1 -1 0 -8 1 -2 0 -14 1 -1 0 -17 1 -2 0 -18 1 -2 0 -19 1 -1 0 -19 1 -2 0 -18 1 -2"/>
<path stroke="#FFA500" stroke-width="4" d="M657 507l0 -18 1 -1 0 -16 1 -2 0 -18 1 -1 0 -18 1 -1 0 -17 1 -2 0 -16 1 -2 0 -16 1 -2 0 -15 1 -2 0 -15 1 -1 0 -13 1 -2 0 -13 1 -1 0 -11 1 -1 0 -9 1 -1 0 -8 1 -1 0 -7 1 0 0 -6 1 -1 0 -5 1 -1 0 -5 1 -1 0 -5 1 -1 0 -5 1 0"/>
<path stroke="#FFA500" stroke-width="4" d="M677 247l0 -6 1 0 0 -6 1 -1 0 -6 1 0 0 -7 1 -1 0 -6 1 0 0 -7 1 -1 0 -7 1 -1 0 -7 1 0 0 -7 1 -1 0 -6 1 -1 0 -6 1 0 0 -6 1 0 0 -5 1 -1 0 -5 1 0 0 -5 1 0 0 -4 1 -1 0 -4 1 0 0 -4 1 0 0 -4 1 0 0 -3 1 0 0 -3 1 -1 0 -3 1 0"/>
<path stroke="#FFA500" stroke-width="4" d="M699 121l0 -2 1 -1 0 -2 1 0 0 -3 1 0 0 -2 1 0 0 -2 1 0 0 -2 1 0 0 -2 1 0 0 -1 1 0 0 -2 1 0 0 -1 1 0 0 -2 1 0 0 -1 1 0 0 -1 1 0 0 -1 1 0 0 -1 1 0 0 -1 1 0 0 -1 1 0 0 -1 2 0 0 -1 1 0 0 -1 2 0 0 -1 2 0 0 -1 2 0 0 -1 2 0"/>
<path stroke="#FFA500" stroke-width="4" d="M727 87l0 -1 4 0 0 -1 4 0 0 -1 6 0 0 -1 1 0 0 -3 1 0 0 -4 1 -1 0 -2 1 0 0 -1 1 0 0 -1 3 0M749 73l0 -2M749 73l1 0M750 76l0 -3M750 76l1 0M751 83l0 -7M751 83l1 1M752 92l0 -8M752 92l1 1M753 102l0 -9M753 102l1 1M754 112l0 -9"/>
<path stroke="#FFA500" stroke-width="4" d="M754 112l1 1M755 122l0 -9M755 122l1 1M756 133l0 -10M756 133l1 1M757 144l0 -10M757 144l1 1M758 154l0 -9M758 154l1 1M759 165l0 -10M759 165l1 1M760 177l0 -11M760 177l1 1M761 189l0 -11M761 189l1 1M762 201l0 -11M762 201l1 1"/>
<path stroke="#FFA500" stroke-width="4" d="M763 213l0 -11M763 213l1 1M764 225l0 -11M764 225l1 1M765 236l0 -10M765 236l1 1M766 248l0 -11M766 248l1 1M767 261l0 -12M767 261l1 1M768 273l0 -11M768 273l1 2M769 286l0 -11M769 286l1 1M770 299l0 -12M770 299l1 1M771 311l0 -11"/>
<path stroke="#FFA500" stroke-width="4" d="M771 311l1 1M772 324l0 -12M772 324l1 1M773 336l0 -11M773 336l1 1M774 348l0 -11M774 348l1 2M775 361l0 -11M775 361l1 1M776 374l0 -12M776 374l1 1M777 387l0 -12M777 387l1 1M778 399l0 -11M778 399l1 1M779 412l0 -12M779 412l1 1"/>
<path stroke="#FFA500" stroke-width="4" d="M780 424l0 -11M780 424l1 2M781 436l0 -10M781 436l1 1M782 448l0 -11M782 448l1 1M783 460l0 -11M783 460l1 1M784 472l0 -11M784 472l1 1M785 484l0 -11M785 484l1 1M786 495l0 -10M786 495l1 1M787 506l0 -10M787 506l1 1M788 516l0 -9"/>
<path stroke="#FFA500" stroke-width="4" d="M788 516l1 1M789 526l0 -9M789 526l1 1M790 536l0 -9M790 536l1 1M791 545l0 -8M791 545l1 1M792 554l0 -8M792 554l1 1M793 562l0 -7M793 562l1 1M794 570l0 -7M794 570l1 0M795 576l0 -6M795 576l1 1M796 582l0 -5M796 582l1 1M797 588l0 -5"/>
<path stroke="#FFA500" stroke-width="4" d="M797 588l1 0M798 593l0 -5M798 593l1 1M799 598l0 -4M799 598l1 0M800 602l0 -4M800 602l1 1M801 606l0 -3M801 606l1 0M802 609l0 -3M802 609l1 1M803 612l0 -2M803 612l1 1M804 615l0 -2M804 615l1 0M805 617l0 -2M805 617l1 1M806 620l0 -2"/>
<path stroke="#FFA500" stroke-width="4" d="M806 620l1 0M807 621l0 -1M807 621l1 1M808 623l0 -1M808 623l1 0M809 625l0 -2M809 625l1 0M810 626l0 -1M810 626l1 0M811 627l0 -1M811 627l1 0M812 628l0 -1M812 628l1 0M813 629l0 -1M813 629l1 0M814 630l0 -1M814 630l1 0 1 1"/>
<path stroke="#FFA500" stroke-width="4" d="M816 631l1 0M817 632l0 -1M817 632l2 0M819 633l0 -1M819 633l3 0M822 634l0 -1M822 634l5 0M827 635l0 -1M827 635l6 0 0 -2 1 -1 0 -8 1 -2 0 -14 1 -1 0 -17 1 -2 0 -18 1 -2 0 -19 1 -1 0 -19 1 -2 0 -18 1 -2 0 -18 1 -1 0 -16"/>
<path stroke="#FFA500" stroke-width="4" d="M842 472l1 -2 0 -18 1 -1 0 -18 1 -1 0 -17 1 -2 0 -16 1 -2 0 -16 1 -2 0 -15 1 -2 0 -15 1 -1 0 -13 1 -2 0 -13 1 -1 0 -11 1 -1 0 -9 1 -1 0 -8 1 -1 0 -7 1 0 0 -6 1 -1 0 -5 1 -1 0 -5 1 -1 0 -5 1 -1 0 -5 1 0 0 -6 1 0 0 -6"/>
<path stroke="#FFA500" stroke-width="4" d="M862 235l1 -1 0 -6 1 0 0 -7 1 -1 0 -6 1 0 0 -7 1 -1 0 -7 1 -1 0 -7 1 0 0 -7 1 -1 0 -6 1 -1 0 -6 1 0 0 -6 1 0 0 -5 1 -1 0 -5 1 0 0 -5 1 0 0 -4 1 -1 0 -4 1 0 0 -4 1 0 0 -4 1 0 0 -3 1 0 0 -3 1 -1 0 -3 1 0 0 -2 1 -1 0 -2"/>
<path stroke="#FFA500" stroke-width="4" d="M884 116l1 0 0 -3 1 0 0 -2 1 0 0 -2 1 0 0 -2 1 0 0 -2 1 0 0 -1 1 0 0 -2 1 0 0 -1 1 0 0 -2 1 0 0 -1 1 0 0 -1 1 0 0 -1 1 0 0 -1 1 0 0 -1 1 0 0 -1 1 0 0 -1 2 0 0 -1 1 0 0 -1 2 0 0 -1 2 0 0 -1 2 0 0 -1 2 0 0 -1 4 0 0 -1"/>
<path stroke="#FFA500" stroke-width="4" d="M915 85l4 0 0 -1 6 0 0 -1 1 0 0 -3 1 0 0 -4 1 -1 0 -2 1 0 0 -1 1 0 0 -1 3 0M933 73l0 -2M933 73l1 0M934 76l0 -3M934 76l1 0M935 83l0 -7M935 83l1 1M936 92l0 -8M936 92l1 1M937 102l0 -9M937 102l1 1M938 112l0 -9M938 112l1 1"/>
<path stroke="#FFA500" stroke-width="4" d="M939 122l0 -9M939 122l1 1M940 133l0 -10M940 133l1 1M941 144l0 -10M941 144l1 1M942 154l0 -9M942 154l1 1M943 165l0 -10M943 165l1 1M944 177l0 -11M944 177l1 1M945 189l0 -11M945 189l1 1M946 201l0 -11M946 201l1 1M947 213l0 -11"/>
<path stroke="#FFA500" stroke-width="4" d="M947 213l1 1M948 225l0 -11M948 225l1 1M949 236l0 -10M949 236l1 1M950 248l0 -11M950 248l1 1M951 261l0 -12M951 261l1 1M952 273l0 -11M952 273l1 2M953 286l0 -11M953 286l1 1M954 299l0 -12M954 299l1 1M955 311l0 -11M955 311l1 1"/>
<path stroke="#FFA500" stroke-width="4" d="M956 324l0 -12M956 324l1 1M957 336l0 -11M957 336l1 1M958 348l0 -11M958 348l1 2M959 361l0 -11M959 361l1 1M960 374l0 -12M960 374l1 1M961 387l0 -12M961 387l1 1M962 399l0 -11M962 399l1 1M963 412l0 -12M963 412l1 1M964 424l0 -11"/>
<path stroke="#FFA500" stroke-width="4" d="M964 424l1 2M965 436l0 -10M965 436l1 1M966 448l0 -11M966 448l1 1M967 460l0 -11M967 460l1 1M968 472l0 -11M968 472l1 1M969 484l0 -11M969 484l1 1M970 490l0 -5"/>
</svg>
